<?xml version="1.0" encoding="utf-8"?>
<!-- Generator: Adobe Illustrator 24.1.2, SVG Export Plug-In . SVG Version: 6.00 Build 0)  -->
<svg version="1.1" id="Capa_1" xmlns="http://www.w3.org/2000/svg" xmlns:xlink="http://www.w3.org/1999/xlink" x="0px" y="0px"
	 viewBox="0 0 32 32" style="enable-background:new 0 0 32 32;" xml:space="preserve">
<g id="layer-icon">
<style>
	path {
	fill: "#F27059";
	}
    @media (prefers-color-scheme: dark) {
      path {
        fill: white;
      }
    }
</style>
	<g>
		<path d="M30.2,10.4C23.7,26.3,14.3,27.3,5,25.7c-0.3,0-0.6,0-0.9-0.1C7,29,11.2,31.3,16,31.3c8.4,0,15.3-6.8,15.3-15.3
			C31.3,14,30.9,12.1,30.2,10.4z"/>
		<path d="M13.6,9.2c0.8-1.8,1.4-2-0.4-2.4c-0.6-0.2-1.2-0.4-1-0.8c0.4-0.8,0.8-0.8,1.4-0.8c0.6,0.2,3,0.4,3.6,0.6
			c0.6,0,0.6,0.4,0.8,0.8l-6.7,14c2.6,0.8,9.9,2.2,18.1-10.7c0.2-0.3,0.3-0.5,0.4-0.6C27.2,4.2,22,0.7,16,0.7
			C7.6,0.7,0.7,7.6,0.7,16c0,3.2,1,6.2,2.7,8.7L13.6,9.2z"/>
	</g>
</g>
</svg>
