<?xml version="1.0" encoding="utf-8"?>
<!-- Generator: Adobe Illustrator 24.1.2, SVG Export Plug-In . SVG Version: 6.00 Build 0)  -->
<svg version="1.1" id="Capa_1" xmlns="http://www.w3.org/2000/svg" xmlns:xlink="http://www.w3.org/1999/xlink" x="0px" y="0px"
	 viewBox="0 0 32 32" style="enable-background:new 0 0 32 32;" xml:space="preserve">
<style type="text/css">
	.st0{display:none;}
	.st1{display:inline;stroke:#FFFFFF;stroke-miterlimit:10;}
</style>
<g id="Capa_1_1_" class="st0">
	<path class="st1" d="M-257.8,8.4c-19.5,0-35.4,15.9-35.4,35.4s15.9,35.4,35.4,35.4s35.4-15.9,35.4-35.4S-238.4,8.4-257.8,8.4z
		 M-254.3,15.7c12.8,1.6,23,11.8,24.5,24.6h-24.5V15.7z M-286.1,43.8c0-14.4,10.9-26.3,24.8-28.1v56.1
		C-275.2,70.1-286.1,58.2-286.1,43.8z M-254.3,71.9V47.3h24.5C-231.3,60.1-241.5,70.3-254.3,71.9z"/>
	<path class="st1" d="M-186.1,6.5h8.9V37h0.2c1.4-2.5,3.6-4.7,6.4-6.3c2.6-1.5,5.8-2.5,9.1-2.5c6.6,0,17.1,4,17.1,20.9v29.1h-8.9
		V50.1c0-7.9-2.9-14.5-11.3-14.5c-5.8,0-10.3,4-11.9,8.9c-0.5,1.2-0.6,2.5-0.6,4.2v29.5h-8.9L-186.1,6.5L-186.1,6.5z"/>
	<path class="st1" d="M-128.1,29.3l10.7,28.9c1.1,3.2,2.3,7.1,3.1,10h0.2c0.9-2.9,1.9-6.7,3.1-10.2l9.7-28.7h9.4l-13.3,34.8
		c-6.4,16.8-10.7,25.4-16.8,30.6c-4.3,3.8-8.7,5.4-10.9,5.8l-2.2-7.5c2.2-0.7,5.2-2.1,7.8-4.3c2.4-1.9,5.5-5.4,7.5-9.9
		c0.4-0.9,0.7-1.6,0.7-2.1s-0.2-1.2-0.6-2.3l-18.1-45L-128.1,29.3L-128.1,29.3z"/>
	<path class="st1" d="M-42.5,6.5v59.1c0,4.3,0.1,9.3,0.4,12.6h-8l-0.4-8.5h-0.2c-2.7,5.5-8.7,9.6-16.7,9.6
		c-11.8,0-20.9-10-20.9-24.8c-0.1-16.3,10-26.3,21.9-26.3c7.5,0,12.5,3.5,14.7,7.5h0.2V6.5H-42.5z M-51.4,49.2
		c0-1.1-0.1-2.6-0.4-3.7c-1.3-5.7-6.2-10.3-12.8-10.3c-9.2,0-14.6,8.1-14.6,18.9c0,9.9,4.8,18.1,14.4,18.1c6,0,11.4-3.9,13-10.6
		c0.3-1.2,0.4-2.4,0.4-3.8L-51.4,49.2L-51.4,49.2z"/>
	<path class="st1" d="M-27.8,44.5c0-5.8-0.1-10.7-0.4-15.3h7.8l0.3,9.6h0.4c2.2-6.6,7.6-10.7,13.5-10.7c1,0,1.7,0.1,2.5,0.3v8.4
		c-0.9-0.2-1.8-0.3-3-0.3c-6.3,0-10.7,4.7-11.9,11.4c-0.2,1.2-0.4,2.6-0.4,4.1v26.1h-8.8V44.5L-27.8,44.5z"/>
	<path class="st1" d="M31.8,78.2L31.1,72h-0.3c-2.7,3.8-8,7.3-14.9,7.3C6,79.3,1,72.3,1,65.3C1,53.5,11.5,47,30.4,47.1v-1
		c0-4-1.1-11.3-11.1-11.3c-4.5,0-9.3,1.4-12.7,3.6l-2-5.9c4-2.6,9.9-4.3,16.1-4.3c14.9,0,18.6,10.2,18.6,20v18.3
		c0,4.2,0.2,8.4,0.8,11.7L31.8,78.2L31.8,78.2z M30.5,53.2c-9.7-0.2-20.7,1.5-20.7,11c0,5.8,3.8,8.5,8.4,8.5c6.4,0,10.4-4,11.8-8.2
		c0.3-0.9,0.5-1.9,0.5-2.8L30.5,53.2L30.5,53.2z"/>
</g>
<g id="Capa_2_1_">
	<g>
		<path d="M-41.4,12.5c-36.3,88.6-88.1,94.1-139.8,85.3c-1.6,0-3.4-0.2-4.8-0.7c15.6,19.1,39.3,31.5,65.8,31.5
			c46.9,0,84.9-38,84.9-84.9C-35.4,32.7-37.5,22.1-41.4,12.5z"/>
		<path d="M-133.8,6c4.4-9.9,7.8-11-2.3-13.3c-3.2-1.2-6.7-2.3-5.5-4.4c2.3-4.4,4.4-4.4,7.8-4.4c3.2,1.1,16.6,2.3,19.8,3.2
			c3.2,0,3.2,2.3,4.4,4.4L-147,69.1c14.3,4.4,55.2,12.2,100.5-59.6c1.1-1.6,1.8-2.5,2.3-3.2c-13.8-28.1-42.8-47.4-76.1-47.4
			c-46.9,0-84.9,38-84.9,84.9c0,17.9,5.5,34.5,15.2,48.3L-133.8,6z"/>
	</g>
</g>
<g id="Capa_2_2_">
	<g>
		<path d="M30.2,10.4C23.7,26.3,14.3,27.3,5,25.7c-0.3,0-0.6,0-0.9-0.1C7,29,11.2,31.3,16,31.3c8.4,0,15.3-6.8,15.3-15.3
			C31.3,14,30.9,12.1,30.2,10.4z"/>
		<path d="M13.6,9.2c0.8-1.8,1.4-2-0.4-2.4c-0.6-0.2-1.2-0.4-1-0.8c0.4-0.8,0.8-0.8,1.4-0.8c0.6,0.2,3,0.4,3.6,0.6
			c0.6,0,0.6,0.4,0.8,0.8l-6.7,14c2.6,0.8,9.9,2.2,18.1-10.7c0.2-0.3,0.3-0.5,0.4-0.6C27.2,4.2,22,0.7,16,0.7
			C7.6,0.7,0.7,7.6,0.7,16c0,3.2,1,6.2,2.7,8.7L13.6,9.2z"/>
	</g>
</g>
<g id="Capa_2_3_">
	<g>
		<path d="M176.5,99.4c-40,97.4-96.9,103.5-153.8,93.9c-1.8,0-3.8-0.3-5.3-0.8c17.2,21,43.3,34.7,72.4,34.7
			c51.6,0,93.4-41.7,93.4-93.4C183.1,121.6,180.8,110,176.5,99.4z"/>
		<path d="M74.8,92.3c4.8-10.9,8.6-12.1-2.5-14.7c-3.5-1.3-7.3-2.5-6.1-4.8C68.7,68,71,68,74.8,68c3.5,1.3,18.2,2.5,21.8,3.5
			c3.5,0,3.5,2.5,4.8,4.8l-41,85.3c15.7,4.8,60.7,13.4,110.6-65.5c1.3-1.8,2-2.8,2.5-3.5c-15.2-30.9-47.1-52.1-83.7-52.1
			c-51.6,0-93.4,41.7-93.4,93.4c0,19.7,6.1,37.9,16.7,53.1L74.8,92.3z"/>
	</g>
</g>
</svg>
